<svg width="64" height="62" viewBox="0 0 64 62" fill="none" xmlns="http://www.w3.org/2000/svg">
<g id="Frame" clip-path="url(#clip0_1_15)">
<g id="Group">
<path id="Vector" d="M64 2.76025C64 16.6108 64 30.4449 64 44.2954C63.2667 46.4641 62.2667 47.1706 59.95 47.1706C54.6667 47.1706 49.3667 47.1706 44.0833 47.1542C43.5 47.1542 43.2667 47.3185 43.2833 47.9264C43.3167 49.3887 43.3 50.8345 43.3 52.2968C43.3 53.1019 43.3167 53.1019 44.15 53.1183C46.1333 53.1347 47.7333 54.4163 48.1167 56.3057C48.3167 57.308 48.3333 58.3431 48.1667 59.3782C47.9833 60.5447 47.0667 61.3333 45.8667 61.3333C36.95 61.3498 28.0333 61.3498 19.1167 61.3333C17.8 61.3333 16.75 60.2982 16.7 58.9838C16.6833 58.4088 16.7 57.8337 16.7 57.2587C16.7167 54.7777 18.3667 53.069 20.9 53.0197C21.4667 53.0033 21.6167 52.7897 21.6167 52.2804C21.6 50.8838 21.6167 49.4873 21.6167 48.0907C21.6167 47.1706 21.6167 47.1706 20.6667 47.1706C15.1333 47.1706 9.58333 47.1706 4.05 47.1706C1.86666 47.1706 0.866663 46.5134 0.0166626 44.5418C0.0166626 30.5763 0.0166626 16.6108 0.0166626 2.64524C0.783329 0.673632 1.78333 0 3.86666 0C22.6167 0 41.3667 0 60.1167 0C62.3 0 63.3167 0.722922 64 2.76025ZM31.9333 35.0453C41.5333 35.0453 51.1333 35.0453 60.75 35.0453C61.85 35.0453 61.85 35.0453 61.85 33.9609C61.85 24.0043 61.85 14.0477 61.85 4.07465C61.85 3.8282 61.85 3.58175 61.8333 3.3353C61.7833 2.71096 61.45 2.31664 60.8333 2.15234C60.4833 2.05375 60.1333 2.07018 59.7833 2.07018C41.2667 2.07018 22.75 2.07018 4.21666 2.07018C2.51666 2.07018 2.05 2.53023 2.05 4.17323C2.05 14.1134 2.05 24.0536 2.05 33.9937C2.05 35.0453 2.05 35.0453 3.13333 35.0453C12.7333 35.0453 22.3333 35.0453 31.9333 35.0453ZM32 37.2633C27.8167 37.2633 23.6333 37.2633 19.4333 37.2633C13.9333 37.2633 8.43333 37.2633 2.93333 37.2633C2.06666 37.2633 2.03333 37.2962 2.03333 38.1177C2.03333 39.8264 2.03333 41.5187 2.03333 43.2274C2.03333 44.5911 2.55 45.1005 3.91666 45.1005C22.6167 45.1005 41.3333 45.1005 60.0333 45.1005C61.4 45.1005 61.9167 44.5911 61.9333 43.2439C61.9333 41.6009 61.9333 39.9579 61.9333 38.3148C61.9333 37.2633 61.9333 37.2633 60.85 37.2633C51.25 37.2633 41.6333 37.2633 32 37.2633ZM32.5 59.296C36.45 59.296 40.4167 59.296 44.3667 59.296C46.3333 59.296 46.0667 59.5096 46.0833 57.5709C46.1 55.9278 45.4167 55.2542 43.75 55.2542C36.8167 55.2542 29.8833 55.2542 22.95 55.2542C22.2167 55.2542 21.5 55.2378 20.7667 55.2706C19.6667 55.3035 18.95 56.0264 18.9 57.1108C18.8833 57.5216 18.8833 57.9323 18.8833 58.3431C18.8833 59.2796 18.9167 59.3124 19.8667 59.3124C24.1 59.296 28.3 59.296 32.5 59.296ZM32.4333 47.1706C29.7833 47.1706 27.15 47.1871 24.5 47.1542C23.9667 47.1542 23.7667 47.3349 23.7667 47.8607C23.7833 49.3723 23.8 50.9003 23.7667 52.4118C23.75 52.9704 23.9833 53.1019 24.5167 53.1019C29.8 53.0855 35.0833 53.0855 40.3667 53.1019C40.9 53.1019 41.1 52.9212 41.1 52.3954C41.0833 50.9331 41.1 49.4873 41.1 48.025C41.1 47.1706 41.0833 47.1542 40.2333 47.1542C37.6333 47.1706 35.0333 47.1706 32.4333 47.1706Z" fill="white"/>
<path id="Vector_2" d="M4.33333 28.6869C4.36666 27.8325 4.5 27.2739 4.7 26.7317C5.33333 24.9901 5.95 23.2485 6.61666 21.5234C7.23333 19.9461 8.31666 18.8124 10.0667 18.451C10.8833 18.2867 11.6333 18.4674 12.3667 18.8124C12.9167 19.0753 13.4167 19.3875 13.9667 19.6504C14.9167 20.1104 15.8833 20.1268 16.85 19.6339C17.3 19.3875 17.7667 19.141 18.2167 18.8946C20.8 17.5802 23.4 18.566 24.3833 21.2605C24.9333 22.7721 25.15 24.3658 25.5333 25.9266C25.6667 26.4524 25.7667 26.9782 25.9 27.4875C26.1167 28.2761 26.6667 28.5226 27.3667 28.1283C28.9167 27.2246 30.4333 26.3045 31.9667 25.4009C32.2167 25.253 32.4 25.023 32.5833 24.793C33.65 23.3471 34.7333 21.9177 35.8 20.4719C36.05 20.1268 36.3333 19.8311 36.8 19.8147C37.2333 19.7982 37.5667 19.9954 37.7833 20.3733C38.0167 20.784 37.95 21.1784 37.6833 21.5234C37.0333 22.4106 36.3167 23.2485 35.75 24.1686C34.55 26.0909 32.95 27.5368 30.8833 28.5226C30 28.9498 29.2 29.5248 28.35 30.0013C26.4333 31.0692 24.3333 30.1492 23.8333 28.0461C23.4167 26.2388 23 24.4479 22.5833 22.6406C22.4833 22.2463 22.3667 21.852 22.1667 21.4905C21.5667 20.4061 20.5167 20.0775 19.4 20.6197C18.9 20.8662 18.4167 21.1455 17.9167 21.4084C16.25 22.312 14.5833 22.312 12.9 21.4577C12.45 21.2276 12.0167 20.9812 11.5833 20.7512C10.6333 20.2583 9.85 20.4226 9.15 21.2276C8.81666 21.6055 8.63333 22.0656 8.46666 22.5256C7.89999 24.1358 7.33333 25.7459 6.74999 27.3561C6.53333 27.9475 6.49999 28.539 6.63333 29.1634C6.89999 30.297 7.13333 31.4471 7.36666 32.5972C7.48333 33.1723 7.16666 33.6816 6.66666 33.8131C6.09999 33.9609 5.49999 33.7145 5.34999 33.1559C4.94999 31.595 4.63333 30.0177 4.33333 28.6869Z" fill="white"/>
<path id="Vector_3" d="M9.7 11.6982C9.71666 8.44502 12.3333 5.91479 15.65 5.91479C18.8833 5.91479 21.5333 8.52717 21.5333 11.7146C21.5333 14.9349 18.8167 17.5966 15.55 17.5801C12.2833 17.5637 9.7 14.9513 9.7 11.6982ZM15.5833 8.08356C13.4667 8.08356 11.7833 9.74299 11.8 11.7803C11.8333 13.8341 13.5333 15.5099 15.6 15.5099C17.6833 15.5099 19.35 13.8669 19.35 11.7803C19.35 9.67727 17.7167 8.08356 15.5833 8.08356Z" fill="white"/>
<path id="Vector_4" d="M44 11.3039C40.6333 11.3039 37.25 11.3039 33.8833 11.3039C33.65 11.3039 33.4167 11.3204 33.2 11.2875C32.6333 11.2053 32.2833 10.8603 32.2667 10.3017C32.25 9.74307 32.55 9.36518 33.1167 9.25017C33.4167 9.18445 33.7333 9.18445 34.05 9.18445C40.7 9.18445 47.3333 9.18445 53.9833 9.18445C54.3167 9.18445 54.65 9.20088 54.9667 9.2666C55.5 9.39804 55.7833 9.77593 55.75 10.3017C55.7333 10.8275 55.4 11.1725 54.8667 11.2711C54.65 11.3204 54.4167 11.3039 54.1833 11.3039C50.7833 11.3039 47.3833 11.3039 44 11.3039Z" fill="white"/>
<path id="Vector_5" d="M39.9333 18.3195C37.8667 18.3195 35.8167 18.3195 33.75 18.3195C33.4667 18.3195 33.1667 18.3195 32.9 18.2045C32.4833 18.0238 32.25 17.6952 32.25 17.2351C32.25 16.7915 32.5 16.4629 32.9167 16.2822C33.2167 16.1507 33.5333 16.1672 33.8333 16.1672C37.8667 16.1672 41.9 16.1672 45.95 16.1672C46.15 16.1672 46.3667 16.1672 46.5667 16.2C47.2 16.2986 47.5667 16.7258 47.5333 17.2844C47.5167 17.843 47.1167 18.2538 46.4833 18.3031C45.9 18.3359 45.3167 18.3195 44.7333 18.3195C43.1333 18.3195 41.5333 18.3195 39.9333 18.3195Z" fill="white"/>
<path id="Vector_6" d="M10.7167 26.3703C10.7 25.368 11.0167 24.908 11.65 24.8423C12.2667 24.7766 12.7 25.1873 12.8333 25.9924C12.85 26.0745 12.8667 26.1567 12.8667 26.2388C13.0333 27.7997 13.2 29.377 13.35 30.9542C13.4167 31.6115 13.0167 32.1372 12.4167 32.2194C11.85 32.3015 11.2833 31.8743 11.2167 31.2171C11.0333 29.5248 10.8667 27.849 10.7167 26.3703Z" fill="white"/>
<path id="Vector_7" d="M17.85 30.527C17.9333 29.0483 18 27.5861 18.1 26.1073C18.15 25.3844 18.6 24.908 19.2 24.908C19.7667 24.908 20.2667 25.3516 20.25 25.9923C20.1833 27.7339 20.0833 29.4755 19.9167 31.2007C19.8667 31.825 19.35 32.1536 18.7833 32.1043C18.2167 32.055 17.85 31.6278 17.8167 31.0035C17.8333 30.8556 17.8333 30.6913 17.85 30.527Z" fill="white"/>
<path id="Vector_8" d="M33.7833 41.1244C33.8 42.0774 33.0167 42.8496 32.05 42.8496C31.1167 42.8496 30.35 42.1102 30.3333 41.2394C30.3333 40.3029 31.1333 39.4814 32.05 39.465C32.9833 39.4321 33.7667 40.2044 33.7833 41.1244Z" fill="white"/>
</g>
</g>
<defs>
<clipPath id="clip0_1_15">
<rect width="64" height="61.3333" fill="white"/>
</clipPath>
</defs>
</svg>
