<svg width="64" height="64" viewBox="0 0 64 64" fill="none" xmlns="http://www.w3.org/2000/svg">
<g id="Frame" clip-path="url(#clip0_1_25)">
<g id="Group">
<path id="Vector" d="M43.8542 16.5743C43.7624 18.228 43.9828 20.2493 43.744 22.2705C43.689 22.8034 43.5604 23.3363 43.3033 23.7773C42.9911 24.3285 43.0646 24.7879 43.3217 25.3207C44.0012 26.7907 44.4786 28.3159 44.7357 29.9145C44.8826 30.7965 44.4235 31.5131 43.6155 31.6785C42.8993 31.8255 42.2014 31.3477 42.0178 30.5209C41.7791 29.4 41.4852 28.2975 41.0812 27.2134C40.9159 26.7907 40.769 26.6437 40.2915 26.8642C38.9877 27.4339 37.592 27.783 36.1963 28.0586C35.5352 28.1872 35.3515 28.4996 35.4801 29.106C35.6086 29.6756 35.6086 30.2452 35.6086 30.8149C35.5902 31.5682 35.1128 32.1011 34.4149 32.1562C33.6436 32.2297 33.056 31.8255 32.909 31.0537C32.7989 30.5209 32.7621 29.9696 32.707 29.4184C32.6703 28.959 32.4316 28.7752 31.9725 28.8487C30.3013 29.106 28.6118 29.253 26.9039 29.253C26.5182 29.253 26.3713 29.4184 26.3713 29.7859C26.3897 30.3555 26.3897 30.9435 26.3713 31.5131C26.3529 31.9357 26.555 32.0827 26.959 32.0644C27.969 32.046 28.9791 32.0644 29.9891 32.0644C31.1461 32.0644 31.7888 32.5972 31.7888 33.4976C31.7704 34.398 31.1277 34.8941 29.9524 34.8941C28.9974 34.8941 28.0241 34.9125 27.0692 34.8941C26.5733 34.8757 26.3713 35.0411 26.3713 35.5556C26.3897 36.8786 26.3897 38.22 26.3713 39.543C26.3713 39.984 26.4999 40.2412 26.9773 40.2596C27.4364 40.278 27.8956 40.3147 28.3547 40.3515C29.328 40.4433 29.9156 41.0497 29.8789 41.8766C29.8238 42.6667 29.1811 43.1628 28.2261 43.1628C27.9323 43.1628 27.6201 43.1628 27.3263 43.1261C26.3713 43.0158 26.3897 42.8872 26.3897 44.0448C26.3897 45.9926 26.3897 47.9403 26.3897 49.9064C26.3897 50.6598 26.4815 50.7333 27.2344 50.6414C27.5834 50.6047 27.9139 50.5312 28.2628 50.4944C29.0892 50.4209 29.7136 50.8436 29.8422 51.5786C29.9891 52.3687 29.5667 53.0302 28.7403 53.2323C27.6017 53.5079 26.4264 53.6366 25.2694 53.6182C21.0089 53.5631 17.0422 52.4973 13.5346 50.0167C8.33745 46.3233 5.49096 41.2702 4.94003 34.9125C4.6462 31.4396 5.34405 28.1505 6.75811 25.0084C6.96012 24.5674 6.99684 24.2183 6.75811 23.7956C6.20717 22.8034 6.11535 21.7009 6.11535 20.5984C6.11535 17.346 6.09699 14.0753 6.11535 10.8229C6.11535 10.2165 5.95007 9.92253 5.32568 9.77553C3.98508 9.48153 2.64448 9.11403 1.32224 8.7649C0.422383 8.52603 8.82894e-07 8.04828 0.0183653 7.31328C0.0367297 6.57828 0.477476 6.10053 1.35897 5.88004C8.99857 3.96904 16.6382 2.03967 24.2778 0.091922C24.7552 -0.0367028 25.2143 -0.0183278 25.6918 0.110297C33.7354 2.03967 41.7974 3.96904 49.841 5.91679C50.9429 6.17403 51.2918 6.63341 51.2918 7.75428C51.2918 9.16915 51.3102 10.6024 51.2918 12.0173C51.2918 12.4583 51.4387 12.7155 51.8428 12.936C54.2301 14.259 54.8545 16.8499 53.367 19.1651C53.1834 19.4591 53.1283 19.7164 53.1834 20.0655C53.4221 21.5906 53.6425 23.0974 53.8078 24.6225C54.0098 26.3314 52.7426 27.8014 51.0164 27.8932C50.2818 27.93 49.5472 27.93 48.8126 27.8932C47.1966 27.8197 45.9478 26.5519 45.9845 24.9349C46.0212 23.3179 46.4069 21.756 46.6089 20.1574C46.664 19.7715 46.6089 19.4591 46.3885 19.1284C44.9194 16.8683 45.5621 14.2223 47.9128 12.9544C48.3535 12.7155 48.5004 12.4399 48.4821 11.9805C48.4637 11.2271 48.4637 10.4738 48.4821 9.70203C48.5004 9.29778 48.3352 9.18753 47.9495 9.2794C46.7742 9.5734 45.5805 9.8674 44.4052 10.1247C43.9461 10.2349 43.8542 10.5105 43.8542 10.9148C43.8726 12.6788 43.8542 14.4428 43.8542 16.5743ZM41.0261 16.5191C41.0261 14.9573 41.0261 13.3954 41.0261 11.8335C41.0261 10.9332 41.0261 10.9331 40.163 11.1353C35.5535 12.2378 30.9257 13.3403 26.3162 14.4611C25.3796 14.6816 24.4981 14.6816 23.5616 14.4428C18.9704 13.2484 14.361 12.1091 9.76987 10.9148C9.21894 10.7678 8.96184 10.8045 8.96184 11.466C8.9802 14.7184 8.96184 17.9891 8.9802 21.2415C8.9802 22.7115 9.78824 23.7589 11.1656 24.2366C11.4227 24.3285 11.6981 24.402 11.9552 24.4755C15.3527 25.4126 18.7868 26.0557 22.2944 26.313C27.8221 26.7172 33.2396 26.2027 38.5286 24.4939C40.1997 23.961 41.0078 22.8585 41.0078 21.1129C41.0445 19.6061 41.0261 18.0626 41.0261 16.5191ZM7.43759 7.27653C7.43759 7.31328 7.43759 7.36841 7.43759 7.40516C7.54778 7.44191 7.6396 7.49703 7.74979 7.51541C13.3509 8.93028 18.9521 10.3635 24.5532 11.7784C24.8654 11.8519 25.1776 11.8335 25.5082 11.76C27.161 11.3558 28.8138 10.9699 30.4666 10.584C32.8907 9.99603 35.3148 9.4264 37.7389 8.8384C37.7389 8.80165 37.7389 8.78328 37.7205 8.74653C37.5001 8.74653 37.2798 8.74653 37.0594 8.74653C33.2212 8.74653 29.4014 8.74653 25.5633 8.74653C25.3429 8.74653 25.1042 8.74653 24.8838 8.72815C24.1859 8.67303 23.6717 8.17691 23.5799 7.51541C23.4881 6.89066 23.9288 6.24753 24.5532 6.02703C24.8838 5.91679 25.2327 5.91679 25.5816 5.91679C29.2545 5.91679 32.9274 5.91679 36.6003 5.91679C36.8758 5.91679 37.1696 5.91679 37.6471 5.91679C37.3716 5.80654 37.2981 5.76979 37.2063 5.75141C33.3314 4.81429 29.4382 3.89554 25.5633 2.95842C25.1225 2.84817 24.7185 2.88492 24.2778 2.99517C21.6149 3.67504 18.9154 4.35491 16.2341 5.03479C13.2958 5.78816 10.3759 6.52316 7.43759 7.27653ZM11.0187 34.9125C10.1555 34.9125 9.27403 34.9309 8.4109 34.9125C7.93343 34.8941 7.73142 35.0595 7.80488 35.5556C8.1538 38.1832 8.99857 40.6271 10.4494 42.8688C10.6697 43.1996 10.8717 43.2915 11.239 43.1077C12.3042 42.5565 13.406 42.1338 14.5446 41.7663C14.8935 41.6561 15.0588 41.4723 14.9854 41.1232C14.5997 39.3041 14.3426 37.4666 14.2692 35.6107C14.2508 35.1146 14.0488 34.8757 13.4978 34.9125C12.6715 34.9492 11.8451 34.9125 11.0187 34.9125ZM20.3111 34.9125C19.3928 34.9125 18.4746 34.9125 17.5564 34.9125C17.2993 34.9125 17.0238 34.8941 17.0605 35.2984C17.1707 37.044 17.336 38.7712 17.7217 40.4801C17.7768 40.719 17.8869 40.9211 18.1991 40.866C19.7785 40.572 21.3762 40.3882 22.9739 40.2963C23.3963 40.278 23.5616 40.0575 23.5616 39.6348C23.5432 38.2751 23.5432 36.9337 23.5616 35.574C23.5799 35.0411 23.3412 34.8941 22.8637 34.9125C22.0189 34.9309 21.1742 34.9125 20.3111 34.9125ZM11.0003 32.0827C11.8267 32.0827 12.6531 32.046 13.4795 32.1011C14.0855 32.1379 14.2875 31.8622 14.3242 31.311C14.361 30.4841 14.361 29.6572 14.5263 28.8487C14.6732 28.1505 14.3977 27.9851 13.81 27.8565C12.4511 27.5441 11.0554 27.3052 9.78824 26.7172C9.27403 26.4784 9.10875 26.6621 8.94347 27.0847C8.41091 28.4996 8.04362 29.9696 7.84161 31.4764C7.76815 31.9541 7.97016 32.0827 8.4109 32.0827C9.25567 32.0644 10.1188 32.0827 11.0003 32.0827ZM23.5616 46.7827C23.5616 45.7353 23.5616 44.6696 23.5616 43.6222C23.5616 43.3098 23.5248 43.1077 23.1024 43.1261C21.7986 43.1996 20.4947 43.3282 19.2092 43.5303C18.7133 43.6038 18.6215 43.8243 18.8052 44.2653C19.4112 45.8272 20.1641 47.334 21.2293 48.6386C21.7067 49.2266 22.276 49.7411 22.9188 50.1453C23.3412 50.4209 23.5799 50.4026 23.5616 49.7962C23.5432 48.8039 23.5616 47.7933 23.5616 46.7827ZM20.2192 32.0827C20.7151 32.0827 21.2293 32.0827 21.7251 32.0827C23.5616 32.0827 23.5616 32.0827 23.5616 30.2269C23.5616 29.253 23.5432 29.1979 22.5882 29.1611C21.0273 29.0876 19.4846 28.9039 17.942 28.665C17.4646 28.5915 17.3176 28.7569 17.2993 29.1979C17.2442 30.0064 17.1891 30.7965 17.0973 31.605C17.0422 32.0276 17.2258 32.1195 17.5931 32.1195C18.4746 32.0827 19.3377 32.0827 20.2192 32.0827ZM18.0522 49.2266C17.2075 47.7566 16.4913 46.2498 15.9587 44.6512C15.8485 44.3572 15.6465 44.3388 15.4078 44.4307C14.6364 44.7247 13.8651 45.0187 13.0938 45.3127C12.6164 45.4965 12.7082 45.6986 13.0204 45.9742C14.0488 46.9665 15.169 47.8301 16.4178 48.5283C16.932 48.8223 17.4278 49.1163 18.0522 49.2266ZM49.8778 25.0635C51.0715 25.0635 51.0898 25.0267 50.9062 23.8691C50.7776 23.0974 50.6491 22.344 50.5756 21.5723C50.5389 21.1313 50.3552 20.9843 49.9145 20.9843C49.4738 20.9843 49.3085 21.1864 49.2534 21.5906C49.1616 22.3624 49.0514 23.1341 48.9228 23.8875C48.7575 25.0635 48.7392 25.0635 49.8778 25.0635ZM51.3653 16.6845C51.3653 15.9128 50.6858 15.2329 49.9145 15.2329C49.1616 15.2329 48.4453 15.9311 48.4453 16.6845C48.427 17.4379 49.1248 18.1361 49.9145 18.1178C50.7042 18.1178 51.3653 17.4563 51.3653 16.6845Z" fill="white"/>
<path id="Vector_2" d="M48.2433 64.0001C44.6439 64.0001 41.0445 64.0001 37.4267 64.0001C34.4333 64.0001 32.3765 61.9237 32.3765 58.9102C32.3765 52.4422 32.3765 45.9559 32.3765 39.4879C32.3765 36.2355 34.1945 34.251 37.4267 34.2142C42.4769 34.1407 47.5271 34.1591 52.5773 34.2142C55.2585 34.2326 57.0399 35.6659 57.5724 37.9811C57.6643 38.3854 57.6643 38.808 57.6643 39.2122C57.6643 44.1184 57.6826 49.0428 57.6459 53.949C57.6459 54.6472 57.8479 54.8861 58.5458 54.831C59.2803 54.7758 60.0149 54.8126 60.7495 54.8126C62.6961 54.8493 63.9816 56.1356 64 58.065C64 58.8 64.0735 59.535 63.9265 60.2699C63.4674 62.4566 61.6677 63.9633 59.4089 63.9633C55.6809 64.0184 51.9529 64.0001 48.2433 64.0001ZM54.8361 49.2082C54.8361 45.9007 54.8361 42.5932 54.8361 39.2857C54.8361 37.7422 54.1934 37.0807 52.6691 37.0807C47.5822 37.0624 42.4769 37.0624 37.39 37.0807C35.9024 37.0807 35.2046 37.7974 35.2046 39.2857C35.2046 45.8089 35.2046 52.332 35.2046 58.8551C35.2046 60.4169 35.9759 61.1703 37.5369 61.1703C41.0996 61.1703 44.6439 61.1703 48.2066 61.1703C50.3185 61.1703 52.4304 61.1519 54.5423 61.1703C55.0382 61.1703 55.2034 61.0601 55.0198 60.5456C54.8361 60.0311 54.8361 59.4615 54.8361 58.9102C54.8361 55.6762 54.8361 52.4422 54.8361 49.2082ZM61.1535 58.8918C61.1535 57.6607 61.1535 57.6607 59.9231 57.6607C59.7211 57.6607 59.5191 57.6607 59.2987 57.6607C57.4806 57.6607 57.4255 57.7342 57.6643 59.535C57.7928 60.5456 58.5641 61.2071 59.5374 61.1519C60.474 61.0968 61.1168 60.3802 61.1535 59.3696C61.1719 59.2042 61.1535 59.0572 61.1535 58.8918Z" fill="white"/>
<path id="Vector_3" d="M44.9928 58.7264C43.2299 58.7264 41.4669 58.7264 39.6855 58.7264C38.4184 58.7264 37.7389 58.1935 37.7389 57.2748C37.7389 56.3744 38.3816 55.8599 39.6304 55.8415C43.2482 55.8232 46.8844 55.8415 50.5022 55.8415C50.7593 55.8415 51.0164 55.8783 51.2551 55.9334C51.8795 56.0804 52.2835 56.5765 52.3202 57.2197C52.357 57.8444 51.9713 58.3957 51.3837 58.5978C51.0347 58.708 50.6674 58.7264 50.3002 58.7264C48.5188 58.7264 46.7558 58.7264 44.9928 58.7264Z" fill="white"/>
<path id="Vector_4" d="M45.0479 42.3543C43.1747 42.3543 41.2832 42.3543 39.41 42.3543C38.3633 42.3543 37.7389 41.8215 37.7572 40.9395C37.7572 40.0942 38.3816 39.543 39.3733 39.543C43.138 39.5246 46.9027 39.5246 50.6674 39.543C51.7142 39.543 52.3386 40.1126 52.3386 40.9762C52.3386 41.8398 51.6958 42.3543 50.6491 42.3543C48.7575 42.3727 46.9027 42.3543 45.0479 42.3543Z" fill="white"/>
<path id="Vector_5" d="M45.0112 53.2507C43.0829 53.2507 41.1547 53.2691 39.2264 53.2507C38.0327 53.2323 37.3349 52.1115 37.9042 51.156C38.2164 50.6231 38.7122 50.4393 39.2999 50.4393C40.2915 50.4393 41.2649 50.4393 42.2565 50.4393C44.9194 50.4393 47.5822 50.4393 50.2451 50.4393C50.4654 50.4393 50.7042 50.4393 50.9245 50.4577C51.7693 50.5496 52.3019 51.1192 52.2835 51.9093C52.2651 52.6811 51.6958 53.2507 50.8511 53.2691C49.2534 53.2874 47.6373 53.2691 46.0396 53.2875C45.709 53.2507 45.3601 53.2507 45.0112 53.2507Z" fill="white"/>
<path id="Vector_6" d="M44.9745 47.8484C43.2298 47.8484 41.4852 47.8484 39.7406 47.8484C39.4468 47.8484 39.1346 47.83 38.8591 47.7749C38.1062 47.6095 37.6654 46.9848 37.7389 46.2682C37.8123 45.5883 38.3449 45.0922 39.0978 45.0554C39.2631 45.037 39.41 45.0554 39.5753 45.0554C43.2298 45.0554 46.866 45.0554 50.5205 45.0554C50.7042 45.0554 50.8878 45.0554 51.0714 45.0738C51.7509 45.1473 52.2284 45.5883 52.3019 46.2498C52.3937 46.9297 52.008 47.536 51.3653 47.7565C51.0347 47.8668 50.6858 47.8852 50.3369 47.8852C48.5555 47.83 46.7742 47.8484 44.9745 47.8484Z" fill="white"/>
</g>
</g>
<defs>
<clipPath id="clip0_1_25">
<rect width="64" height="64" fill="white"/>
</clipPath>
</defs>
</svg>
